<svg width="251" height="70" viewBox="0 0 251 70" fill="none" xmlns="http://www.w3.org/2000/svg">
<rect x="181" width="70" height="70" rx="10" fill="black"/>
<rect x="196.75" y="49.4375" width="7" height="7" fill="#383838"/>
<rect x="202.875" y="36.3125" width="14" height="14" fill="#8F8F8F"/>
<rect x="216" y="12.6875" width="24.5" height="24.5" fill="#E6E6E6"/>
<path d="M18.72 27C18.216 26.1 15.912 24.408 12.456 24.12C11.736 24.048 10.98 24.012 10.296 24.084L9.756 24.192C4.932 24.876 0.9 29.52 0.9 34.704C0.9 39.888 4.932 44.46 9.756 45.144C10.8 45.288 11.916 45.216 12.996 44.964C15.264 44.568 17.1 43.596 18.072 42.66C18.828 41.904 19.404 41.184 19.728 40.644L15.984 38.124C15.444 38.844 14.436 39.528 13.248 39.78C12.528 40.032 11.7 40.14 10.908 39.996C8.568 39.6 6.912 37.584 6.912 34.668C6.948 31.752 8.568 29.7 10.908 29.304C11.916 29.196 12.78 29.304 13.536 29.664C13.68 29.808 13.788 29.952 13.896 30.096L14.184 30.636L18.72 31.14C19.008 30.384 19.08 28.224 18.72 27ZM27.4584 14.724H21.6264V45H27.4584V33.228C27.4584 30.78 29.2944 28.908 31.5984 28.908C34.0104 28.908 35.4864 30.78 35.4864 33.228L35.5224 45H41.3184V33.084C41.3184 32.292 41.2464 31.608 41.1024 30.924C40.4544 27.036 36.7824 24.444 33.3264 24.012C33.0744 23.94 32.7864 23.94 32.5344 23.94C30.6624 23.94 28.8624 24.768 27.4584 25.992V14.724ZM50.1334 24.228H44.3014V45H50.1334V34.236C50.1334 32.652 50.8894 29.952 53.7334 29.556C55.0294 29.34 56.1814 29.52 57.1894 29.7C57.6934 29.772 58.1254 29.844 58.4854 29.844L59.9974 24.588C59.6374 24.588 58.7734 24.228 57.4054 24.012C56.9014 23.976 56.3254 23.94 55.6774 23.94C53.2294 24.048 50.8894 25.452 50.1334 26.712V24.228ZM67.9441 34.668C67.9441 31.392 70.0321 29.232 72.8761 29.232C75.6841 29.268 77.7721 31.392 77.7721 34.668V34.776C77.7361 37.98 75.7561 40.104 72.8761 40.104C69.9241 40.104 67.9441 37.944 67.9441 34.668ZM83.4961 25.56C82.7761 25.344 81.9841 25.164 81.1561 25.02C80.8681 24.984 80.4001 25.056 79.7881 25.164C77.5921 24.264 74.4961 23.94 72.3721 23.976C71.8681 23.976 71.4361 24.012 71.0401 24.048C65.8201 24.48 61.8961 29.196 61.8961 34.668C61.8961 40.14 65.7841 44.856 71.0401 45.288C73.9561 45.504 76.0801 44.532 77.7001 42.984V45H83.4961V25.56ZM91.6 34.92V34.488C91.6 31.248 93.688 29.268 96.46 29.232C99.412 29.232 101.392 31.392 101.392 34.632C101.392 37.944 99.304 40.104 96.46 40.104C93.76 40.104 91.6 38.124 91.6 34.92ZM96.316 24.012C93.076 24.012 90.628 25.128 88.936 26.46C88.432 26.604 88.18 25.956 87.964 26.316C87.1 26.82 86.38 27.396 85.84 27.972V53.496H91.672L91.636 44.46C93.4 45.072 95.344 45.36 96.964 45.36C102.508 45.36 107.368 41.868 107.368 34.884C107.368 31.5 105.1 24.012 96.316 24.012ZM115.651 34.668C115.651 31.392 117.739 29.232 120.583 29.232C123.391 29.268 125.479 31.392 125.479 34.668V34.776C125.443 37.98 123.463 40.104 120.583 40.104C117.631 40.104 115.651 37.944 115.651 34.668ZM131.203 25.56C130.483 25.344 129.691 25.164 128.863 25.02C128.575 24.984 128.107 25.056 127.495 25.164C125.299 24.264 122.203 23.94 120.079 23.976C119.575 23.976 119.143 24.012 118.747 24.048C113.527 24.48 109.603 29.196 109.603 34.668C109.603 40.14 113.491 44.856 118.747 45.288C121.663 45.504 123.787 44.532 125.407 42.984V45H131.203V25.56ZM135.347 24.804H132.467V29.736H135.347L135.383 35.568C135.383 36.324 135.383 37.08 135.419 37.8C135.563 41.22 136.751 44.496 141.179 45C143.195 45.18 144.995 44.604 145.715 44.64L144.815 39.528C144.275 39.528 143.375 39.78 142.547 39.456C141.719 39.204 141.287 38.34 141.215 36.72C141.179 36.324 141.179 35.928 141.179 35.46V29.736H145.175V24.804H141.179V18.432H135.347V24.804ZM149.038 17.748C149.038 18.972 149.254 20.16 149.542 21.204C150.19 21.528 150.946 21.708 151.774 21.708C152.638 21.708 153.502 21.528 154.222 21.204C154.546 20.484 154.726 19.692 154.726 18.828C154.726 17.964 154.546 17.172 154.222 16.488C153.574 16.164 152.782 15.948 151.99 15.948C150.658 15.948 149.434 16.776 149.038 17.748ZM148.966 45H154.834V24.192H148.966V45ZM163.604 34.668C163.604 31.392 165.692 29.232 168.536 29.232C171.344 29.268 173.432 31.392 173.432 34.668V34.776C173.396 37.98 171.416 40.104 168.536 40.104C165.584 40.104 163.604 37.944 163.604 34.668ZM179.156 25.56C178.436 25.344 177.644 25.164 176.816 25.02C176.528 24.984 176.06 25.056 175.448 25.164C173.252 24.264 170.156 23.94 168.032 23.976C167.528 23.976 167.096 24.012 166.7 24.048C161.48 24.48 157.556 29.196 157.556 34.668C157.556 40.14 161.444 44.856 166.7 45.288C169.616 45.504 171.74 44.532 173.36 42.984V45H179.156V25.56Z" fill="white"/>
</svg>
